<svg width="53" height="47" viewBox="0 0 53 47" fill="none" xmlns="http://www.w3.org/2000/svg">
<path fill-rule="evenodd" clip-rule="evenodd" d="M26.5 0.625V10.7917H52.75V46.375H0.25001V0.625H26.5ZM5.50002 41.2916H10.75V36.2083H5.50002V41.2916ZM10.75 31.125H5.50002V26.0417H10.75V31.125ZM5.50002 20.9583H10.75V15.875H5.50002V20.9583ZM10.75 10.7916H5.50002V5.7083H10.75V10.7916ZM16 41.2916H21.25V36.2083H16V41.2916ZM21.25 31.125H16V26.0417H21.25V31.125ZM16 20.9583H21.25V15.875H16V20.9583ZM21.25 10.7916H16V5.7083H21.25V10.7916ZM26.5 41.2917H47.5V15.875H26.5V20.9583H31.75V26.0417H26.5V31.125H31.75V36.2083H26.5V41.2917ZM42.25 20.9583H37V26.0416H42.25V20.9583ZM37 31.125H42.25V36.2083H37V31.125Z" fill="#2B63F9"/>
</svg>
