<svg width="28" height="28" viewBox="0 0 28 28" fill="none" xmlns="http://www.w3.org/2000/svg">
<path d="M17.6296 25.9259H5.18516C4.04442 25.9259 3.11108 24.9926 3.11108 23.8519V9.33335C3.11108 8.19261 4.04442 7.25928 5.18516 7.25928H15.5555C16.6963 7.25928 17.6296 8.19261 17.6296 9.33335V15.1408L19.3926 16.9037C19.6 17.1111 19.7037 17.3185 19.7037 17.6296V23.8519C19.7037 24.9926 18.7703 25.9259 17.6296 25.9259ZM5.18516 9.33335V23.8519H17.6296V18.0445L15.8666 16.2815C15.6592 16.0741 15.5555 15.8667 15.5555 15.5556V9.33335H5.18516Z" fill="#979BAA"/>
<path d="M22.8148 3.11108H8.29631C7.67409 3.11108 7.25928 3.5259 7.25928 4.14812V8.29627H9.33335V5.18516H21.7778V21.7778H18.6667V23.8518H22.8148C23.4371 23.8518 23.8519 23.437 23.8519 22.8148V4.14812C23.8519 3.5259 23.4371 3.11108 22.8148 3.11108Z" fill="#979BAA"/>
<path d="M13.4815 11.4074H7.25928V12.4444H13.4815V11.4074Z" fill="#979BAA"/>
<path d="M13.4815 13.4815H7.25928V14.5185H13.4815V13.4815Z" fill="#979BAA"/>
</svg>
