<svg width="28" height="28" viewBox="0 0 28 28" fill="none" xmlns="http://www.w3.org/2000/svg">
<path d="M18.8125 8.53125V7.21875C18.8125 7.09844 18.7141 7 18.5938 7H8.09375C7.97344 7 7.875 7.09844 7.875 7.21875V8.53125C7.875 8.65156 7.97344 8.75 8.09375 8.75H18.5938C18.7141 8.75 18.8125 8.65156 18.8125 8.53125ZM8.09375 10.9375C7.97344 10.9375 7.875 11.0359 7.875 11.1562V12.4688C7.875 12.5891 7.97344 12.6875 8.09375 12.6875H13.125C13.2453 12.6875 13.3438 12.5891 13.3438 12.4688V11.1562C13.3438 11.0359 13.2453 10.9375 13.125 10.9375H8.09375ZM18.375 14.1094C15.1129 14.1094 12.4688 16.7535 12.4688 20.0156C12.4688 23.2777 15.1129 25.9219 18.375 25.9219C21.6371 25.9219 24.2812 23.2777 24.2812 20.0156C24.2812 16.7535 21.6371 14.1094 18.375 14.1094ZM21.3145 22.9551C20.5297 23.7398 19.4852 24.1719 18.375 24.1719C17.2648 24.1719 16.2203 23.7398 15.4355 22.9551C14.6508 22.1703 14.2188 21.1258 14.2188 20.0156C14.2188 18.9055 14.6508 17.8609 15.4355 17.0762C16.2203 16.2914 17.2648 15.8594 18.375 15.8594C19.4852 15.8594 20.5297 16.2914 21.3145 17.0762C22.0992 17.8609 22.5312 18.9055 22.5312 20.0156C22.5312 21.1258 22.0992 22.1703 21.3145 22.9551ZM20.8086 17.9375H19.5973C19.5262 17.9375 19.4605 17.9703 19.4195 18.0277L17.6832 20.4285L17.0516 19.5563C17.0313 19.5281 17.0046 19.5052 16.9737 19.4895C16.9428 19.4738 16.9085 19.4657 16.8738 19.466H15.668C15.4902 19.466 15.3863 19.6684 15.4902 19.8133L17.5082 22.6051C17.5957 22.7254 17.7734 22.7254 17.8609 22.6051L20.9836 18.2848C21.0902 18.1398 20.9863 17.9375 20.8086 17.9375ZM12.0312 23.2969H5.6875V4.04688H21V13.4531C21 13.5734 21.0984 13.6719 21.2188 13.6719H22.75C22.8703 13.6719 22.9688 13.5734 22.9688 13.4531V2.95312C22.9688 2.46914 22.5777 2.07812 22.0938 2.07812H4.59375C4.10977 2.07812 3.71875 2.46914 3.71875 2.95312V24.3906C3.71875 24.8746 4.10977 25.2656 4.59375 25.2656H12.0312C12.1516 25.2656 12.25 25.1672 12.25 25.0469V23.5156C12.25 23.3953 12.1516 23.2969 12.0312 23.2969Z" fill="#989BA5"/>
</svg>
