<svg width="48" height="48" viewBox="0 0 48 48" fill="none" xmlns="http://www.w3.org/2000/svg">
<path d="M38 27.172V20C38 13.566 33.63 8.146 27.71 6.516C27.124 5.04 25.692 4 24 4C22.308 4 20.876 5.04 20.29 6.516C14.37 8.148 10 13.566 10 20V27.172L6.586 30.586C6.39992 30.7714 6.25234 30.9918 6.15177 31.2345C6.0512 31.4771 5.99962 31.7373 6 32V36C6 36.5304 6.21072 37.0391 6.58579 37.4142C6.96086 37.7893 7.46957 38 8 38H40C40.5304 38 41.0391 37.7893 41.4142 37.4142C41.7893 37.0391 42 36.5304 42 36V32C42.0004 31.7373 41.9488 31.4771 41.8482 31.2345C41.7477 30.9918 41.6001 30.7714 41.414 30.586L38 27.172ZM38 34H10V32.828L13.414 29.414C13.6001 29.2286 13.7477 29.0082 13.8482 28.7655C13.9488 28.5229 14.0004 28.2627 14 28V20C14 14.486 18.486 10 24 10C29.514 10 34 14.486 34 20V28C34 28.532 34.21 29.04 34.586 29.414L38 32.828V34ZM24 44C25.2386 44.0016 26.4469 43.6172 27.457 42.9003C28.467 42.1835 29.2287 41.1697 29.636 40H18.364C18.7713 41.1697 19.533 42.1835 20.543 42.9003C21.5531 43.6172 22.7614 44.0016 24 44V44Z" fill="#989BA5" fill-opacity="0.83"/>
</svg>
