<svg width="48" height="48" viewBox="0 0 48 48" fill="none" xmlns="http://www.w3.org/2000/svg">
<path d="M28 38C35.542 38 39.314 38 41.656 35.656C44 33.314 44 29.542 44 22C44 14.458 44 10.686 41.656 8.344C39.314 6 35.542 6 28 6H20C12.458 6 8.686 6 6.344 8.344C4 10.686 4 14.458 4 22C4 29.542 4 33.314 6.344 35.656C7.65 36.964 9.4 37.542 12 37.796" stroke="#979BAA" stroke-width="2" stroke-linecap="round" stroke-linejoin="round"/>
<path d="M24 22V22.02" stroke="#979BAA" stroke-width="2" stroke-linecap="round"/>
<path d="M16 22V22.02" stroke="#979BAA" stroke-width="2" stroke-linecap="round"/>
<path d="M32 22V22.02" stroke="#979BAA" stroke-width="2" stroke-linecap="round"/>
<path d="M28 38C25.528 38 22.804 39 20.318 40.29C16.322 42.364 14.324 43.402 13.34 42.74C12.356 42.08 12.542 40.03 12.916 35.932L13 35" stroke="#979BAA" stroke-width="2" stroke-linecap="round"/>
</svg>
