<svg width="62" height="60" viewBox="0 0 62 60" fill="none" xmlns="http://www.w3.org/2000/svg">
<path fill-rule="evenodd" clip-rule="evenodd" d="M0.166531 30C0.166531 13.44 13.949 0 30.969 0C48.0199 0 61.8332 13.44 61.8332 30C61.8332 46.56 48.0199 60 30.969 60C13.949 60 0.166531 46.56 0.166531 30ZM43.2409 18.0015H52.3367C49.3767 13.0515 44.6592 9.21151 38.9859 7.32151C40.8359 10.6515 42.2542 14.2515 43.2409 18.0015ZM31.0001 6.12147C33.5592 9.72147 35.5634 13.7115 36.8892 18.0015H25.1109C26.4367 13.7115 28.4409 9.72147 31.0001 6.12147ZM6.33306 30C6.33306 32.07 6.64139 34.08 7.13473 36H17.5564C17.3097 34.02 17.1247 32.04 17.1247 30C17.1247 27.96 17.3097 25.98 17.5564 24H7.13473C6.64139 25.92 6.33306 27.93 6.33306 30ZM9.66312 42H18.759C19.7456 45.75 21.164 49.35 23.014 52.68C17.3406 50.79 12.6231 46.98 9.66312 42ZM9.66312 18.0015H18.759C19.7456 14.2515 21.164 10.6515 23.014 7.32151C17.3406 9.21151 12.6231 13.0215 9.66312 18.0015ZM31.0001 53.88C28.4409 50.28 26.4367 46.29 25.1109 42H36.8892C35.5634 46.29 33.5592 50.28 31.0001 53.88ZM23.7849 36H38.2149C38.4924 34.02 38.7082 32.04 38.7082 30C38.7082 27.96 38.4924 25.95 38.2149 24H23.7849C23.5074 25.95 23.2915 27.96 23.2915 30C23.2915 32.04 23.5074 34.02 23.7849 36ZM38.9859 52.68C40.8359 49.35 42.2542 45.75 43.2409 42H52.3367C49.3767 46.95 44.6592 50.79 38.9859 52.68ZM44.8747 30C44.8747 32.04 44.6897 34.02 44.4431 36H54.8647C55.3581 34.08 55.6664 32.07 55.6664 30C55.6664 27.93 55.3581 25.92 54.8647 24H44.4431C44.6897 25.98 44.8747 27.96 44.8747 30Z" fill="#2B63F9"/>
</svg>
